# xmcd CD database file
#
# Track frame offsets:
#	150
#	14731
#	32008
#	50519
#	79709
#	111576
#	133533
#	149126
#	165553
#	186295
#	207216
#	241858
#	267287
#	286563
#	300306
#	321034
#
# Disc length: 4546 seconds
#
# Revision: 1
# Processed by: cddbd v1.5.1PL2 Copyright (c) Steve Scherf et al.
# Submitted via: CDex 1.60beta1
#
DISCID=e111c010
DTITLE=Kazik - Los się musi odmienić
DYEAR=2005
DGENRE=Jazz
TTITLE0=Ból
TTITLE1=DD
TTITLE2=Rozdroże
TTITLE3=Los się musi odmienić
TTITLE4=W Polskę idziemy
TTITLE5=Mamo, przepraszam
TTITLE6=Chłopci
TTITLE7=Gerard
TTITLE8=Grześ
TTITLE9=To jest chiba apokalipsa
TTITLE10=Alicja!
TTITLE11=Co się stało z naszym panem?
TTITLE12=Generał Poder
TTITLE13=Frankie and Johny
TTITLE14=Brat gryzie ziemię
TTITLE15=Jeszcze Polska nie zginęła
EXTD=YEAR: 2005
EXTT0=
EXTT1=
EXTT2=
EXTT3=
EXTT4=
EXTT5=
EXTT6=
EXTT7=
EXTT8=
EXTT9=
EXTT10=
EXTT11=
EXTT12=
EXTT13=
EXTT14=
EXTT15=
PLAYORDER=
